<?xml version="1.0" encoding="UTF-8" standalone="no"?>
<svg
   xmlns:dc="http://purl.org/dc/elements/1.1/"
   xmlns:cc="http://creativecommons.org/ns#"
   xmlns:rdf="http://www.w3.org/1999/02/22-rdf-syntax-ns#"
   xmlns:svg="http://www.w3.org/2000/svg"
   xmlns="http://www.w3.org/2000/svg"
   xmlns:sodipodi="http://sodipodi.sourceforge.net/DTD/sodipodi-0.dtd"
   xmlns:inkscape="http://www.inkscape.org/namespaces/inkscape"
   style="enable-background:new 0 0 100 100;"
   version="1.1"
   viewBox="0 0 100 100"
   xml:space="preserve"
   id="svg14"
   sodipodi:docname="left.svg"
   inkscape:version="1.0.2 (e86c870879, 2021-01-15, custom)"><metadata
     id="metadata20"><rdf:RDF><cc:Work
         rdf:about=""><dc:format>image/svg+xml</dc:format><dc:type
           rdf:resource="http://purl.org/dc/dcmitype/StillImage" /><dc:title></dc:title></cc:Work></rdf:RDF></metadata><defs
     id="defs18" /><sodipodi:namedview
     pagecolor="#ffffff"
     bordercolor="#666666"
     borderopacity="1"
     objecttolerance="10"
     gridtolerance="10"
     guidetolerance="10"
     inkscape:pageopacity="0"
     inkscape:pageshadow="2"
     inkscape:window-width="1920"
     inkscape:window-height="1001"
     id="namedview16"
     showgrid="false"
     inkscape:zoom="8.3"
     inkscape:cx="50"
     inkscape:cy="50"
     inkscape:window-x="-9"
     inkscape:window-y="-9"
     inkscape:window-maximized="1"
     inkscape:current-layer="svg14" /><g
     id="blue"
     transform="rotate(180,50.000125,50.000216)"><g
       id="Layer_8"><path
         d="m 28.713,27.267 v 8.294 c 0,0.571 0.305,1.1 0.8,1.385 l 20.212,11.669 c 1.066,0.616 1.066,2.155 0,2.771 L 29.513,63.055 c -0.495,0.286 -0.8,0.814 -0.8,1.385 v 8.294 c 0,1.231 1.333,2.001 2.399,1.385 L 70.487,51.386 c 1.066,-0.616 1.066,-2.155 0,-2.771 L 31.112,25.881 c -1.066,-0.615 -2.399,0.154 -2.399,1.386 z"
         style="fill:#415c8c"
         id="path2" /><path
         d="m 51.551,49.086 c -1.003,-0.57 -2.006,-1.14 -3.009,-1.71 0.486,0.484 0.972,0.968 1.458,1.452 0.772,0.703 0.685,2.002 -0.276,2.557 l -20.211,11.67 c -0.495,0.286 -0.8,0.814 -0.8,1.385 v 8.294 c 0,1.115 1.092,1.84 2.091,1.512 -0.054,-0.16 -0.091,-0.328 -0.091,-0.512 V 65.44 c 0,-0.571 0.305,-1.1 0.8,-1.385 L 51.725,52.386 c 0.112,-0.085 0.717,-0.56 0.8,-1.385 0.074,-0.746 -0.305,-1.487 -0.974,-1.915 z"
         style="opacity:0.6;fill:#ffffff"
         id="path4" /><path
         d="m 31.513,37.946 c -0.495,-0.286 -0.8,-0.814 -0.8,-1.385 v -8.294 c 0,-1.008 0.894,-1.693 1.803,-1.575 l -1.403,-0.81 c -1.066,-0.616 -2.399,0.154 -2.399,1.385 v 8.294 c 0,0.571 0.305,1.1 0.8,1.385 l 1.902,1.098 c 0.048,-0.024 0.095,-0.048 0.143,-0.072 z"
         style="opacity:0.6;fill:#ffffff"
         id="path6" /><path
         d="M 70.487,48.615 31.112,25.881 c -0.193,-0.112 -0.395,-0.164 -0.597,-0.19 l 37.972,21.923 c 1.066,0.616 1.066,2.155 0,2.771 L 29.112,73.119 c -0.1,0.058 -0.205,0.092 -0.308,0.126 0.308,0.914 1.401,1.398 2.308,0.874 L 70.487,51.386 c 1.067,-0.616 1.067,-2.156 0,-2.771 z"
         id="path8" /><path
         d="m 28.713,27.267 v 8.294 c 0,0.571 0.305,1.1 0.8,1.385 l 20.212,11.669 c 1.066,0.616 1.066,2.155 0,2.771 L 29.513,63.055 c -0.495,0.286 -0.8,0.814 -0.8,1.385 v 8.294 c 0,1.231 1.333,2.001 2.399,1.385 L 70.487,51.386 c 1.066,-0.616 1.066,-2.155 0,-2.771 L 31.112,25.881 c -1.066,-0.615 -2.399,0.154 -2.399,1.386 z"
         style="fill:none;stroke:#000000;stroke-miterlimit:10"
         id="path10" /></g></g></svg>
